# xmcd
#
# Track frame offsets:
#	150
#	11215
#	24550
#	36007
#	57400
#	71779
#	84105
#	103508
#	117780
#	135843
#	154806
#	171290
#	186808
#	199501
#	210756
#	222357
#
# Disc length: 3103 seconds
#
# Revision: 1
# Processed by: cddbd v1.5.1PL0 Copyright (c) Steve Scherf et al.
# Submitted via: audiograbber 1.82.02
#
DISCID=d00c1d10
DTITLE=Max Abbott - The Songs I Love To Sing
DYEAR=1900
DGENRE=Country
TTITLE0=I Still Recall The Day
TTITLE1=Have I Told You Lately That I Love You
TTITLE2=Mississippi Cotton Pickin
TTITLE3=I'm Easy
TTITLE4=The Simple Things
TTITLE5=Bed Of Roses
TTITLE6=Don't Close Your Eyes
TTITLE7=Saddle Boy
TTITLE8=Help Me Make It Through The Night
TTITLE9=Honey
TTITLE10=It Never Rains in California
TTITLE11=I Want To Dance With You
TTITLE12=Yobbo From Dubbo
TTITLE13=One Small Photograph Of You
TTITLE14=Send Me The Pillow
TTITLE15=She Wears My Ring
EXTD=
EXTT0=
EXTT1=
EXTT2=
EXTT3=
EXTT4=
EXTT5=
EXTT6=
EXTT7=
EXTT8=
EXTT9=
EXTT10=
EXTT11=
EXTT12=
EXTT13=
EXTT14=
EXTT15=
PLAYORDER=
